<svg width="200" height="60" viewBox="0 0 200 60" xmlns="http://www.w3.org/2000/svg">
  <defs>
    <linearGradient id="logoGradient" x1="0%" y1="0%" x2="100%" y2="100%">
      <stop offset="0%" style="stop-color: #4361ee"></stop>
      <stop offset="100%" style="stop-color: #3a0ca3"></stop>
    </linearGradient>
  </defs>
  <!-- Book icon -->
  <g transform="translate(0,5) scale(0.5)">
    <path d="M 0,10 C 0,5 5,0 10,0 H 50 C 55,0 60,5 60,10 V 70 C 60,75 55,80 50,80 H 10 C 5,80 0,75 0,70 Z" fill="url('#logoGradient')"></path>
    <path d="M 5,10 V 65 C 5,68 7,70 10,70 H 50 C 53,70 55,68 55,65 V 10 H 52 V 63 C 52,64 51,65 50,65 H 10 C 9,65 8,64 8,63 V 10 Z" fill="#FFFFFF"></path>
    <line x1="15" y1="20" x2="45" y2="20" stroke="#DDD" stroke-width="2"></line>
    <line x1="15" y1="30" x2="45" y2="30" stroke="#DDD" stroke-width="2"></line>
    <line x1="15" y1="40" x2="45" y2="40" stroke="#DDD" stroke-width="2"></line>
    <path d="M 45,5 L 45,25 L 40,20 L 35,25 L 35,5 Z" fill="#FF6B6B"></path>
  </g>
  <!-- Text -->
  <text x="40" y="35" font-family="Poppins, sans-serif" font-weight="700" font-size="24" fill="#2a3f65">Readleta</text>
  <!-- Pencil accent -->
  <g transform="translate(160,20) scale(0.2) rotate(-15)">
    <path d="M 30,70 L 60,20 L 70,30 L 40,80 Z" fill="#FFC107"></path>
    <path d="M 25,75 L 30,70 L 40,80 L 35,85 Z" fill="#4CAF50"></path>
    <path d="M 60,20 L 70,30 L 75,25 L 65,15 Z" fill="#FF7FAB"></path>
  </g>
</svg>