<svg xmlns="http://www.w3.org/2000/svg" width="200" height="60"><defs><linearGradient id="logoGradient" x1="0%" x2="100%" y1="0%" y2="100%"><stop offset="0%" style="stop-color:#4361ee"/><stop offset="100%" style="stop-color:#3a0ca3"/></linearGradient></defs><path fill="url('#logoGradient')" d="M0 10C0 5 5 0 10 0h40c5 0 10 5 10 10v60c0 5-5 10-10 10H10C5 80 0 75 0 70Z" transform="matrix(.5 0 0 .5 0 5)"/><path fill="#FFF" d="M2.5 10v27.5C2.5 39 3.5 40 5 40h20c1.5 0 2.5-1 2.5-2.5V10H26v26.5c0 .5-.5 1-1 1H5c-.5 0-1-.5-1-1V10Z"/><path stroke="#DDD" stroke-width="1" d="M7.5 15h15M7.5 20h15M7.5 25h15"/><path fill="#FF6B6B" d="M22.5 7.5v10L20 15l-2.5 2.5v-10Z"/><text x="40" y="35" fill="#2a3f65" font-family="Poppins, sans-serif" font-size="24" font-weight="700">Readleta</text><path fill="#FFC107" d="m169.419 31.97 3.207-11.212 2.45 1.414-3.207 11.212Z"/><path fill="#4CAF50" d="m168.712 33.195.707-1.225 2.45 1.414-.708 1.225Z"/><path fill="#FF7FAB" d="m172.626 20.758 2.45 1.414.707-1.225-2.45-1.414Z"/></svg>